#N canvas 1053 309 1260 911 36;
#X obj 31 664 *~ 0.1;
#X obj 31 744 dac~;
#X obj 690 474 hsl 256 25 0 1 0 0 empty asd-c1x1-gain empty -2 -8 0
10 -262144 -1 -1 15250 1;
#X obj 31 563 *~;
#X text 681 429 Gain;
#X obj 690 94 hsl 256 25 50 1500 0 0 asd-c1x1-evprls asd-c1x1-evprls-slider
empty -2 -8 0 10 -262144 -1 -1 6532 1;
#X obj 687 185 hsl 256 25 40 200 0 0 asd-c1x1-oscfreq asd-c1x1-oscfreq-slider
empty -2 -8 0 10 -262144 -1 -1 2651 1;
#X text 683 134 oscillator frequency;
#X obj 693 375 hsl 256 25 5 60 0 0 asd-c1x1-bpq asd-c1x1-bpq-slider
empty -2 -8 0 10 -262144 -1 -1 10747 1;
#X text 680 324 filter resonance;
#X obj 689 274 hsl 256 25 60 1400 0 0 asd-c1x1-bpcf asd-c1x1-bpcf-slider
empty -2 -8 0 10 -262144 -1 -1 19738 1;
#X text 685 223 filter frequency;
#N canvas 507 71 1087 793 randomize 0;
#X obj 36 26 inlet;
#X obj 273 233 asd_randrange 40 200;
#X obj 208 352 asd_randrange 5 60;
#X obj 143 474 asd_randrange 60 1400;
#X obj 244 69 loadbang;
#X obj 36 89 t b b;
#X obj 34 726 outlet;
#X obj 78 602 asd_randrange 50 1500;
#X obj 273 294 s asd-c1x1-oscfreq-slider;
#X obj 208 413 s asd-c1x1-bpq-slider;
#X obj 143 533 s asd-c1x1-bpcf-slider;
#X obj 78 664 s asd-c1x1-evprls-slider;
#X obj 78 165 t b b b b;
#X connect 0 0 5 0;
#X connect 1 0 8 0;
#X connect 2 0 9 0;
#X connect 3 0 10 0;
#X connect 4 0 12 0;
#X connect 5 0 6 0;
#X connect 5 1 12 0;
#X connect 7 0 11 0;
#X connect 12 0 7 0;
#X connect 12 1 3 0;
#X connect 12 2 2 0;
#X connect 12 3 1 0;
#X restore 94 188 pd randomize;
#X obj 129 254 bng 30 250 50 0 empty empty empty 17 7 0 10 -262144
-1 -1;
#X text 167 249 Just Play;
#N canvas 461 380 1093 656 adsr-envelope 0;
#X obj 162 16 inlet;
#X obj 206 511 outlet~;
#X obj 206 449 line~;
#X msg 206 296 0;
#X msg 297 296 1 10;
#X msg 420 298 0.7 40;
#X obj 162 86 t b b;
#X obj 299 181 pipe 10;
#X obj 473 180 pipe 40;
#X msg 580 299 0.7 100;
#X floatatom 859 118 5 0 0 0 - - -;
#X obj 650 181 pipe 100;
#X msg 765 359 0 \$1;
#X msg 765 297 421.423;
#X msg 859 178 set \$1;
#X obj 617 47 r asd-c1x1-evprls;
#X connect 0 0 6 0;
#X connect 2 0 1 0;
#X connect 3 0 2 0;
#X connect 4 0 2 0;
#X connect 5 0 2 0;
#X connect 6 0 4 0;
#X connect 6 0 7 0;
#X connect 6 1 3 0;
#X connect 7 0 5 0;
#X connect 7 0 8 0;
#X connect 8 0 9 0;
#X connect 8 0 11 0;
#X connect 9 0 2 0;
#X connect 10 0 14 0;
#X connect 11 0 13 0;
#X connect 12 0 2 0;
#X connect 13 0 12 0;
#X connect 14 0 13 0;
#X connect 15 0 10 0;
#X restore 94 307 pd adsr-envelope;
#N canvas 851 147 613 466 sound-source 0;
#X obj 29 360 outlet~;
#X obj 29 55 noise~;
#X floatatom 246 113 5 0 100000 0 - asd-c1x1-bpq -;
#X obj 29 173 bp~ 100 10;
#X floatatom 89 112 5 0 0 0 - asd-c1x1-bpcf -;
#X obj 378 117 osc~;
#X floatatom 378 62 5 0 0 0 - asd-c1x1-oscfreq -;
#X obj 378 174 *~ 0.2;
#X connect 1 0 3 0;
#X connect 2 0 3 2;
#X connect 3 0 0 0;
#X connect 4 0 3 1;
#X connect 5 0 7 0;
#X connect 6 0 5 0;
#X connect 7 0 0 0;
#X restore 31 56 pd sound-source;
#X text 686 43 envelope release time;
#N canvas 0 22 450 278 (subpatch) 0;
#X array asd-c1p3-recording 441000 float 2;
#X coords 0 1 440999 -1 200 140 1;
#X restore 729 721 graph;
#N canvas 27 43 1235 528 recording 0;
#X obj 66 432 soundfiler;
#X obj 231 45 inlet;
#X text 351 48 start recording;
#X obj 700 49 inlet;
#X text 831 48 write soundfile;
#X obj 69 136 tabwrite~ asd-c1p3-recording;
#X msg 69 254 \; asd-c1p3-recording normalize;
#X msg 66 368 write -wave asd-c1p3-output asd-c1p3-recording;
#X obj 69 197 pipe 10100;
#X obj 69 47 inlet~;
#X text 302 431 write to file asd-c1p3-output.wav;
#X connect 1 0 5 0;
#X connect 1 0 8 0;
#X connect 3 0 7 0;
#X connect 7 0 0 0;
#X connect 8 0 6 0;
#X connect 9 0 5 0;
#X restore 232 680 pd recording;
#X obj 311 634 bng 20 250 50 0 empty empty empty 17 7 0 10 -262144
-1 -1;
#N canvas 71 297 754 399 playback 0;
#X obj 24 158 *~ 0.1;
#X obj 24 238 dac~;
#X obj 24 19 inlet;
#X obj 24 79 tabplay~ asd-c1p3-recording;
#X connect 0 0 1 0;
#X connect 0 0 1 1;
#X connect 2 0 3 0;
#X connect 3 0 0 0;
#X restore 241 793 pd playback;
#X obj 241 750 bng 20 250 50 0 empty empty empty 17 7 0 10 -262144
-1 -1;
#X text 271 739 Listen to recording;
#X obj 383 54 tgl 40 0 empty empty empty 17 7 0 10 -262144 -1 -1 0
1;
#X text 434 44 Auto play;
#X obj 383 111 metro 1000;
#X floatatom 979 92 7 0 0 0 - - -;
#X floatatom 983 177 7 0 0 0 - - -;
#X floatatom 986 274 7 0 0 0 - - -;
#X floatatom 988 376 7 0 0 0 - - -;
#X floatatom 988 474 7 0 0 0 - - -;
#X obj 493 632 bng 20 250 50 0 empty empty empty 17 7 0 10 -262144
-1 -1;
#X text 335 620 Record;
#X text 523 618 Write to sound file;
#N canvas 333 383 594 373 init 0;
#X text 212 22 initialization;
#X obj 30 23 loadbang;
#X msg 30 88 \; asd-c1x1-evprls 250 \; asd-c1x1-oscfreq 70 \; asd-c1x1-bpcf
900 \; asd-c1x1-bpq 20 \; asd-c1x1-gain 0.1;
#X connect 1 0 2 0;
#X restore 683 557 pd init;
#X connect 0 0 1 0;
#X connect 0 0 1 1;
#X connect 2 0 0 1;
#X connect 2 0 31 0;
#X connect 3 0 0 0;
#X connect 3 0 19 0;
#X connect 5 0 27 0;
#X connect 6 0 28 0;
#X connect 8 0 30 0;
#X connect 10 0 29 0;
#X connect 12 0 15 0;
#X connect 13 0 15 0;
#X connect 15 0 3 1;
#X connect 16 0 3 0;
#X connect 20 0 19 1;
#X connect 22 0 21 0;
#X connect 24 0 26 0;
#X connect 26 0 12 0;
#X connect 32 0 19 2;
