#N canvas 1029 289 789 641 36;
#X msg 308 205 args: minval \, maxval;
#X obj 104 323 float \$2;
#X obj 327 326 float \$1;
#X obj 104 402 -;
#X obj 42 513 +;
#X obj 530 323 float \$1;
#X obj 41 470 *;
#X obj 42 566 outlet;
#X obj 104 204 loadbang;
#X obj 104 260 t b b b;
#X obj 41 32 inlet;
#X obj 41 87 random 262144;
#X obj 41 141 / 262143;
#X connect 1 0 3 0;
#X connect 2 0 3 1;
#X connect 3 0 6 1;
#X connect 4 0 7 0;
#X connect 5 0 4 1;
#X connect 6 0 4 0;
#X connect 8 0 9 0;
#X connect 9 0 1 0;
#X connect 9 1 2 0;
#X connect 9 2 5 0;
#X connect 10 0 11 0;
#X connect 11 0 12 0;
#X connect 12 0 6 0;
