#N canvas 1874 666 1569 984 12;
#X obj 162 16 inlet;
#X obj 206 570 outlet~;
#X obj 206 508 line~;
#X msg 206 296 0;
#X obj 162 86 t b b;
#X obj 336 176 pipe 10;
#X obj 473 180 pipe 40;
#X obj 650 181 pipe 100;
#X msg 765 359 0 \$1;
#X msg 765 297 249;
#X msg 859 178 set \$1;
#X obj 230 19 inlet;
#X obj 365 22 inlet;
#X obj 484 25 inlet;
#X obj 793 32 inlet;
#X msg 574 365 0.7 \$1;
#X msg 574 313 100;
#X msg 603 261 set \$1;
#X msg 421 260 40;
#X msg 420 298 0.7 \$1;
#X msg 428 222 set \$1;
#X msg 296 279 10;
#X msg 296 318 1 \$1;
#X msg 310 245 set \$1;
#X connect 0 0 4 0;
#X connect 2 0 1 0;
#X connect 3 0 2 0;
#X connect 4 0 5 0;
#X connect 4 0 21 0;
#X connect 4 1 3 0;
#X connect 5 0 6 0;
#X connect 5 0 18 0;
#X connect 6 0 16 0;
#X connect 6 0 7 0;
#X connect 7 0 9 0;
#X connect 8 0 2 0;
#X connect 9 0 8 0;
#X connect 10 0 9 0;
#X connect 11 0 5 1;
#X connect 11 0 23 0;
#X connect 12 0 6 1;
#X connect 12 0 20 0;
#X connect 13 0 7 1;
#X connect 13 0 17 0;
#X connect 14 0 10 0;
#X connect 15 0 2 0;
#X connect 16 0 15 0;
#X connect 17 0 16 0;
#X connect 18 0 19 0;
#X connect 19 0 2 0;
#X connect 20 0 18 0;
#X connect 21 0 22 0;
#X connect 22 0 2 0;
#X connect 23 0 21 0;
