#N canvas 587 66 1212 669 36;
#X obj 107 484 *~ 0.1;
#X obj 107 564 dac~;
#X obj 690 458 hsl 256 25 0 1 0 0 empty empty empty -2 -8 0 10 -262144
-1 -1 0 1;
#X obj 107 407 *~;
#X obj 170 144 bng 30 250 50 0 empty empty empty 17 7 0 10 -262144
-1 -1;
#X text 685 411 Gain;
#X obj 690 94 hsl 256 25 50 1500 0 0 empty empty empty -2 -8 0 10 -262144
-1 -1 0 1;
#X obj 687 185 hsl 256 25 40 200 0 0 empty empty empty -2 -8 0 10 -262144
-1 -1 0 1;
#X text 683 134 oscillator frequency;
#X obj 693 375 hsl 256 25 5 60 0 0 empty empty empty -2 -8 0 10 -262144
-1 -1 0 1;
#X text 680 324 filter resonance;
#X obj 689 274 hsl 256 25 60 1400 0 0 empty empty empty -2 -8 0 10
-262144 -1 -1 0 1;
#X text 685 223 filter frequency;
#X text 237 130 Play drum sound;
#N canvas 247 477 1367 526 controls 0;
#X obj 30 53 inlet;
#X obj 146 53 inlet;
#X obj 435 46 inlet;
#X obj 292 53 inlet;
#X text 855 145 initialization;
#X obj 672 146 loadbang;
#X msg 672 209 \; asd-c1x1-evprls 250 \; asd-c1x1-oscfreq 70 \; asd_c1x1_bpcf
900 \; asd_c1x1_bpq 20;
#X obj 29 168 s asd-c1x1-evprls;
#X obj 98 261 s asd-c1x1-oscfreq;
#X obj 200 341 s asd_c1x1_bpcf;
#X obj 345 420 s asd_c1x1_bpq;
#X connect 0 0 7 0;
#X connect 1 0 8 0;
#X connect 2 0 10 0;
#X connect 3 0 9 0;
#X connect 5 0 6 0;
#X restore 370 413 pd controls;
#N canvas 743 29 1093 656 adsr-envelope 0;
#X obj 162 16 inlet;
#X obj 206 511 outlet~;
#X obj 206 449 line~;
#X msg 206 296 0;
#X msg 297 296 1 10;
#X msg 420 298 0.7 40;
#X obj 162 86 t b b;
#X obj 299 181 pipe 10;
#X obj 473 180 pipe 40;
#X msg 580 299 0.7 100;
#X floatatom 859 118 5 0 0 0 - - -, f 5;
#X obj 650 181 pipe 100;
#X msg 765 359 0 \$1;
#X msg 765 297 250;
#X msg 859 178 set \$1;
#X obj 609 26 r asd-c1x1-evprls;
#X connect 0 0 6 0;
#X connect 2 0 1 0;
#X connect 3 0 2 0;
#X connect 4 0 2 0;
#X connect 5 0 2 0;
#X connect 6 0 4 0;
#X connect 6 0 7 0;
#X connect 6 1 3 0;
#X connect 7 0 5 0;
#X connect 7 0 8 0;
#X connect 8 0 9 0;
#X connect 8 0 11 0;
#X connect 9 0 2 0;
#X connect 10 0 14 0;
#X connect 11 0 13 0;
#X connect 12 0 2 0;
#X connect 13 0 12 0;
#X connect 14 0 13 0;
#X connect 15 0 10 0;
#X restore 170 198 pd adsr-envelope;
#N canvas 26 553 613 466 sound-source 0;
#X obj 29 360 outlet~;
#X obj 29 55 noise~;
#X floatatom 246 113 5 0 100000 0 - asd_c1x1_bpq -, f 5;
#X obj 29 173 bp~ 100 10;
#X floatatom 89 112 5 0 0 0 - asd_c1x1_bpcf -, f 5;
#X obj 378 117 osc~;
#X floatatom 378 62 5 0 0 0 - asd-c1x1-oscfreq -, f 5;
#X obj 378 174 *~ 0.2;
#X connect 1 0 3 0;
#X connect 2 0 3 2;
#X connect 3 0 0 0;
#X connect 4 0 3 1;
#X connect 5 0 7 0;
#X connect 6 0 5 0;
#X connect 7 0 0 0;
#X restore 107 70 pd sound-source;
#X text 686 43 envelope release time;
#X connect 0 0 1 0;
#X connect 0 0 1 1;
#X connect 2 0 0 1;
#X connect 3 0 0 0;
#X connect 4 0 15 0;
#X connect 6 0 14 0;
#X connect 7 0 14 1;
#X connect 9 0 14 3;
#X connect 11 0 14 2;
#X connect 15 0 3 1;
#X connect 16 0 3 0;
