#N canvas 963 96 1660 1316 36;
#X obj 30 1024 *~ 0.1;
#X obj 30 1104 dac~;
#X obj 30 658 *~;
#N canvas 600 195 1787 1271 randomize 0;
#X obj 36 26 inlet;
#X obj 302 130 asd_randrange 40 200;
#X obj 178 270 asd_randrange 5 60;
#X obj 123 403 asd_randrange 60 1400;
#X obj 83 199 bng 15 250 50 0 empty empty empty 17 7 0 10 -262144 -1
-1;
#X obj 803 49 loadbang;
#X obj 36 89 t b b;
#X obj 34 683 outlet;
#X obj 83 545 asd_randrange 50 1500;
#X obj 302 191 s asd-c1x1-oscfreq-slider;
#X obj 178 331 s asd-c1x1-bpq-slider;
#X obj 647 368 s asd-c1x1-randtrig;
#X obj 123 462 s asd-c1x1-bpcf-slider;
#X obj 83 607 s asd-c1x1-evprls-slider;
#X obj 302 737 s asd-c1x1-combd-slider;
#X obj 302 682 asd_randrange 5 90;
#X obj 341 868 s asd-c1x1-combfb-slider;
#X obj 341 813 asd_randrange 0.5 0.99;
#X obj 372 991 s asd-c1x1-fltsweep1-slider;
#X obj 372 936 asd_randrange 100 1000;
#X obj 279 1104 s asd-c1x1-fltsweep2-slider;
#X obj 279 1049 asd_randrange 100 2000;
#X obj 155 1209 s asd-c1x1-distcut-slider;
#X obj 155 1154 asd_randrange 0.01 0.9;
#X obj 803 126 s asd-c1x1-randtrig;
#X obj 285 40 loadbang;
#X obj 958 874 s asd-c1x1-fltsweepq-slider;
#X obj 957 819 asd_randrange 5 20;
#X connect 0 0 6 0;
#X connect 1 0 9 0;
#X connect 2 0 10 0;
#X connect 3 0 12 0;
#X connect 4 0 3 0;
#X connect 4 0 2 0;
#X connect 4 0 1 0;
#X connect 4 0 8 0;
#X connect 4 0 15 0;
#X connect 4 0 17 0;
#X connect 4 0 19 0;
#X connect 4 0 21 0;
#X connect 4 0 23 0;
#X connect 4 0 27 0;
#X connect 5 0 24 0;
#X connect 6 0 4 0;
#X connect 6 0 7 0;
#X connect 6 1 11 0;
#X connect 8 0 13 0;
#X connect 15 0 14 0;
#X connect 17 0 16 0;
#X connect 19 0 18 0;
#X connect 21 0 20 0;
#X connect 23 0 22 0;
#X connect 25 0 4 0;
#X connect 27 0 26 0;
#X restore 142 464 pd randomize;
#X obj 177 530 bng 30 250 50 0 empty empty empty 17 7 0 10 -262144
-1 -1;
#X text 215 525 Just Play;
#N canvas 461 380 1093 656 adsr-envelope 0;
#X obj 162 16 inlet;
#X obj 206 511 outlet~;
#X obj 206 449 line~;
#X msg 206 296 0;
#X msg 297 296 1 10;
#X msg 420 298 0.7 40;
#X obj 162 86 t b b;
#X obj 299 181 pipe 10;
#X obj 473 180 pipe 40;
#X msg 580 299 0.7 100;
#X floatatom 859 118 5 0 0 0 - - -;
#X obj 650 181 pipe 100;
#X msg 765 359 0 \$1;
#X msg 765 297 1440.1;
#X msg 859 178 set \$1;
#X obj 617 47 r asd-c1x1-evprls;
#X obj 92 581 s asd-c1x1-playtrig;
#X connect 0 0 6 0;
#X connect 2 0 1 0;
#X connect 3 0 2 0;
#X connect 4 0 2 0;
#X connect 5 0 2 0;
#X connect 6 0 4 0;
#X connect 6 0 7 0;
#X connect 6 0 16 0;
#X connect 6 1 3 0;
#X connect 7 0 5 0;
#X connect 7 0 8 0;
#X connect 8 0 9 0;
#X connect 8 0 11 0;
#X connect 9 0 2 0;
#X connect 10 0 14 0;
#X connect 11 0 13 0;
#X connect 12 0 2 0;
#X connect 13 0 12 0;
#X connect 14 0 13 0;
#X connect 15 0 10 0;
#X restore 142 583 pd adsr-envelope;
#N canvas 1464 36 905 471 sound-source 0;
#X obj 29 360 outlet~;
#X obj 29 55 noise~;
#X floatatom 246 113 5 0 100000 0 - asd-c1x1-bpq -;
#X obj 29 173 bp~ 100 10;
#X floatatom 89 112 5 0 0 0 - asd-c1x1-bpcf -;
#X floatatom 379 50 5 0 0 0 - asd-c1x1-oscfreq -;
#N canvas 988 88 937 801 oscdistort 0;
#X obj 38 17 inlet;
#X obj 38 338 osc~;
#X obj 38 716 outlet~;
#X obj 38 410 clip~ -0.1 0.1;
#X obj 38 541 *~ 2;
#X floatatom 193 340 6 0 0 0 - - -;
#X floatatom 355 336 6 0 0 0 - - -;
#X floatatom 209 484 5 0 0 0 - - -;
#X obj 309 24 t b;
#X obj 193 271 * -1;
#X obj 579 410 /;
#X msg 559 342 1;
#X obj 671 284 t b f;
#X floatatom 577 481 5 0 0 0 - - -;
#X obj 38 620 *~ 0.25;
#X obj 309 85 asd_randrange 0.01 0.9;
#X obj 309 149 s asd-c1x1-distcut-slider;
#X obj 391 210 r asd-c1x1-distcut;
#X connect 0 0 1 0;
#X connect 0 0 8 0;
#X connect 1 0 3 0;
#X connect 3 0 4 0;
#X connect 4 0 14 0;
#X connect 5 0 3 1;
#X connect 6 0 3 2;
#X connect 7 0 4 1;
#X connect 8 0 15 0;
#X connect 9 0 5 0;
#X connect 10 0 13 0;
#X connect 11 0 10 0;
#X connect 12 0 11 0;
#X connect 12 1 10 1;
#X connect 13 0 7 0;
#X connect 14 0 2 0;
#X connect 15 0 16 0;
#X connect 17 0 12 0;
#X connect 17 0 6 0;
#X connect 17 0 9 0;
#X restore 379 173 pd oscdistort;
#X obj 379 260 *~ 0.9;
#X connect 1 0 3 0;
#X connect 2 0 3 2;
#X connect 3 0 0 0;
#X connect 4 0 3 1;
#X connect 5 0 6 0;
#X connect 6 0 7 0;
#X connect 7 0 0 0;
#X restore 30 56 pd sound-source;
#N canvas 0 22 450 278 (subpatch) 0;
#X array asd-c1p4-recording 441000 float 2;
#X coords 0 1 440999 -1 200 140 1 0 0;
#X restore 887 1075 graph;
#N canvas 605 257 1280 812 recording 0;
#X msg -1166 -164 bang;
#X obj -1313 287 soundfiler;
#X obj -1166 -232 inlet;
#X text -1061 -161 start recording;
#X obj -748 -236 inlet;
#X text -617 -227 write soundfile;
#X obj -1240 -70 pipe 10100;
#X obj -1303 -200 inlet~;
#X msg -1310 109 \; asd-c1p4-recording normalize;
#X obj -1310 42 tabwrite~ asd-c1p4-recording;
#X msg -1313 223 write -wave asd-c1p4-output asd-c1p4-recording;
#X text -1057 286 will write to asd-c1p4-output.wav;
#X obj -536 -50 timer;
#X msg -541 -126 bang;
#X floatatom -537 86 5 0 0 0 - - -;
#X obj -331 -114 metro 100;
#X obj -332 -162 tgl 15 0 empty empty empty 17 7 0 10 -262144 -1 -1
0 1;
#X obj -536 13 / 10000;
#X msg -414 -146 1;
#X obj -244 -24 > 1;
#X obj -245 45 sel 1;
#X msg -239 111 0;
#X obj -538 149 s asd-c1x1-progress;
#X connect 0 0 6 0;
#X connect 0 0 9 0;
#X connect 0 0 13 0;
#X connect 2 0 0 0;
#X connect 4 0 10 0;
#X connect 6 0 8 0;
#X connect 7 0 9 0;
#X connect 10 0 1 0;
#X connect 12 0 17 0;
#X connect 13 0 12 0;
#X connect 13 0 18 0;
#X connect 14 0 19 0;
#X connect 14 0 22 0;
#X connect 15 0 12 1;
#X connect 16 0 15 0;
#X connect 17 0 14 0;
#X connect 18 0 16 0;
#X connect 19 0 20 0;
#X connect 20 0 21 0;
#X connect 21 0 16 0;
#X restore 221 1092 pd recording;
#X obj 284 1040 bng 20 250 50 0 empty empty empty 17 7 0 10 -262144
-1 -1;
#X obj 482 1041 bng 20 250 50 0 empty empty empty 17 7 0 10 -262144
-1 -1;
#N canvas 71 297 754 399 playback 0;
#X obj 24 238 dac~;
#X obj 24 19 inlet;
#X obj 24 79 tabplay~ asd-c1p4-recording;
#X obj 24 158 *~ 0.2;
#X connect 1 0 2 0;
#X connect 2 0 3 0;
#X connect 3 0 0 0;
#X connect 3 0 0 1;
#X restore 230 1205 pd playback;
#X obj 230 1165 bng 20 250 50 0 empty empty empty 17 7 0 10 -262144
-1 -1;
#X text 312 1026 Record;
#X text 260 1151 Listen to recording;
#X obj 142 348 tgl 40 0 empty empty empty 17 7 0 10 -262144 -1 -1 0
1;
#X text 193 338 Auto play;
#X obj 142 405 metro 1000;
#N canvas 1000 79 1186 774 comb 0;
#X obj 33 45 inlet~;
#X obj 33 627 outlet~;
#X obj 56 193 asd_randrange 5 90;
#X obj 282 681 *~ 0.8;
#X floatatom 411 621 5 0 0 0 - asd-c1x1-combfb -;
#X obj 411 499 asd_randrange 0.5 0.99;
#X floatatom 56 307 5 0 0 0 - asd-c1x1-combd -;
#X text 536 622 feedback coefficient;
#X text 176 306 delay time in ms;
#X obj 56 136 r asd-c1x1-randtrig;
#X obj 556 134 delwrite~ asd-c1x1-dll 100;
#X obj 56 360 delread~ asd-c1x1-dll 99;
#X obj 411 437 r asd-c1x1-randtrig;
#X obj 56 251 s asd-c1x1-combd-slider;
#X obj 411 567 s asd-c1x1-combfb-slider;
#X connect 0 0 1 0;
#X connect 0 0 10 0;
#X connect 2 0 13 0;
#X connect 3 0 10 0;
#X connect 4 0 3 1;
#X connect 5 0 14 0;
#X connect 6 0 11 0;
#X connect 9 0 2 0;
#X connect 11 0 1 0;
#X connect 11 0 3 0;
#X connect 12 0 5 0;
#X restore 30 122 pd comb;
#X obj 162 912 hsl 256 25 0 1 0 0 empty empty empty -2 -8 0 10 -262144
-1 -1 11000 1;
#X text 157 858 Gain;
#X obj 690 94 hsl 256 25 50 1500 0 0 asd-c1x1-evprls asd-c1x1-evprls-slider
empty -2 -8 0 10 -262144 -1 -1 24447 1;
#X obj 687 185 hsl 256 25 40 200 0 0 asd-c1x1-oscfreq asd-c1x1-oscfreq-slider
empty -2 -8 0 10 -262144 -1 -1 2207 1;
#X text 683 134 oscillator frequency;
#X obj 693 375 hsl 256 25 5 60 0 0 asd-c1x1-bpq asd-c1x1-bpq-slider
empty -2 -8 0 10 -262144 -1 -1 8774 1;
#X text 680 324 filter resonance;
#X obj 689 274 hsl 256 25 60 1400 0 0 asd-c1x1-bpcf asd-c1x1-bpcf-slider
empty -2 -8 0 10 -262144 -1 -1 11898 1;
#X text 685 223 filter frequency;
#X text 686 43 envelope release time;
#X floatatom 979 92 7 0 0 0 - - -;
#X floatatom 983 177 7 0 0 0 - - -;
#X floatatom 986 274 7 0 0 0 - - -;
#X floatatom 988 376 7 0 0 0 - - -;
#X floatatom 461 913 7 0 0 0 - - -;
#X obj 890 1232 hsl 200 15 0 1 0 0 empty asd-c1x1-progress empty -2
-8 0 10 -262144 -4160 -1 0 1;
#X obj 694 468 hsl 256 25 5 90 0 0 asd-c1x1-combd asd-c1x1-combd-slider
empty -2 -8 0 10 -262144 -1 -1 22103 1;
#X floatatom 989 469 7 0 0 0 - - -;
#X text 681 417 comb delay time;
#X obj 691 564 hsl 256 25 0.5 0.99 0 0 asd-c1x1-combfb asd-c1x1-combfb-slider
empty -2 -8 0 10 -262144 -1 -1 12470 1;
#X floatatom 986 565 7 0 0 0 - - -;
#X text 678 513 comb feedback factor;
#X obj 697 666 hsl 256 25 40 150 0 0 asd-c1x1-rmodfreq asd-c1x1-rmodfreq-slider
empty -2 -8 0 10 -262144 -1 -1 13179 1;
#X floatatom 992 667 7 0 0 0 - - -;
#X text 684 615 ringmod frequency;
#X obj 693 760 hsl 256 25 100 1000 0 0 asd-c1x1-fltsweep1 asd-c1x1-fltsweep1-slider
empty -2 -8 0 10 -262144 -1 -1 21335 1;
#X floatatom 988 761 7 0 0 0 - - -;
#X text 680 709 filter sweep start;
#X obj 697 866 hsl 256 25 100 2000 0 0 asd-c1x1-fltsweep2 asd-c1x1-fltsweep2-slider
empty -2 -8 0 10 -262144 -1 -1 2257 1;
#X floatatom 992 867 7 0 0 0 - - -;
#X text 684 815 filter sweep end;
#X text 510 1027 Write sound file;
#X obj 697 962 hsl 256 25 0.01 0.9 0 0 asd-c1x1-distcut asd-c1x1-distcut-slider
empty -2 -8 0 10 -262144 -1 -1 7350 1;
#X floatatom 992 963 7 0 0 0 - - -;
#X text 684 911 distortion cutoff;
#N canvas 1399 23 772 645 rmod 0;
#X obj 55 522 outlet~;
#X obj 55 458 *~;
#X obj 118 398 osc~;
#X floatatom 118 341 5 0 0 0 - asd-c1x1-rmodfreq -;
#X obj 120 171 asd_randrange 40 150;
#X obj 120 80 r asd-c1x1-randtrig;
#X obj 120 280 s asd-c1x1-rmodfreq-slider;
#X obj 55 9 inlet~;
#X connect 1 0 0 0;
#X connect 2 0 1 1;
#X connect 3 0 2 0;
#X connect 4 0 6 0;
#X connect 5 0 4 0;
#X connect 7 0 1 0;
#X restore 30 199 pd rmod;
#N canvas 1501 118 770 1052 sweepflt 0;
#X obj 55 850 bp~;
#X obj 105 610 line~;
#X obj 105 717 line 100 50;
#X obj 514 605 metro 50;
#X obj 105 664 snapshot~;
#X floatatom 105 770 5 0 0 0 - - -;
#X obj 55 960 outlet~;
#X msg 105 469 \$1 1000;
#X msg 514 544 1;
#X obj 514 490 loadbang;
#X obj 55 42 inlet~;
#X obj 103 122 r asd-c1x1-playtrig;
#X floatatom 104 414 5 0 0 0 - asd-c1x1-fltsweep2 -;
#X floatatom 290 525 5 0 0 0 - asd-c1x1-fltsweep1 -;
#X obj 103 183 t b b;
#X obj 149 282 s asd-c1x1-fltsweep1;
#X obj 103 346 s asd-c1x1-fltsweep2;
#X text 281 479 fltsweep1;
#X text 223 416 fltsweep2;
#X floatatom 382 772 5 0 0 0 - asd-c1x1-fltsweepq -;
#X connect 0 0 6 0;
#X connect 1 0 4 0;
#X connect 2 0 5 0;
#X connect 3 0 4 0;
#X connect 4 0 2 0;
#X connect 5 0 0 1;
#X connect 7 0 1 0;
#X connect 8 0 3 0;
#X connect 9 0 8 0;
#X connect 10 0 0 0;
#X connect 11 0 14 0;
#X connect 12 0 7 0;
#X connect 13 0 1 0;
#X connect 14 0 16 0;
#X connect 14 1 15 0;
#X connect 19 0 0 2;
#X restore 30 277 pd sweepflt;
#X obj 30 768 clip~ -1 1;
#X obj 1164 843 hsl 256 25 5 20 0 0 asd-c1x1-fltsweepq asd-c1x1-fltsweepq-slider
empty -2 -8 0 10 -262144 -1 -1 22266 1;
#X floatatom 1459 844 7 0 0 0 - - -;
#X text 1151 792 filter sweep q;
#X connect 0 0 1 0;
#X connect 0 0 1 1;
#X connect 2 0 57 0;
#X connect 3 0 6 0;
#X connect 4 0 6 0;
#X connect 6 0 2 1;
#X connect 7 0 19 0;
#X connect 10 0 9 1;
#X connect 11 0 9 2;
#X connect 13 0 12 0;
#X connect 16 0 18 0;
#X connect 18 0 3 0;
#X connect 19 0 55 0;
#X connect 20 0 34 0;
#X connect 20 0 0 1;
#X connect 22 0 30 0;
#X connect 23 0 31 0;
#X connect 25 0 33 0;
#X connect 27 0 32 0;
#X connect 36 0 37 0;
#X connect 39 0 40 0;
#X connect 42 0 43 0;
#X connect 45 0 46 0;
#X connect 48 0 49 0;
#X connect 52 0 53 0;
#X connect 55 0 56 0;
#X connect 56 0 2 0;
#X connect 57 0 9 0;
#X connect 57 0 0 0;
#X connect 58 0 59 0;
