#N canvas 319 194 1242 828 36;
#X obj 31 640 *~ 0.1;
#X obj 31 720 dac~;
#X obj 690 474 hsl 256 25 0 1 0 0 empty empty empty -2 -8 0 10 -262144
-1 -1 0 1;
#X obj 31 563 *~;
#X obj 94 90 bng 30 250 50 0 empty empty empty 17 7 0 10 -262144 -1
-1;
#X text 681 429 Gain;
#X obj 690 94 hsl 256 25 50 1500 0 0 empty asd-c1x1-evprls-slider empty
-2 -8 0 10 -262144 -1 -1 13834 1;
#X obj 687 185 hsl 256 25 40 200 0 0 empty asd-c1x1-oscfreq-slider
empty -2 -8 0 10 -262144 -1 -1 20091 1;
#X text 683 134 oscillator frequency;
#X obj 693 375 hsl 256 25 5 60 0 0 empty asd-c1x1-bpq-slider empty
-2 -8 0 10 -262144 -1 -1 21813 1;
#X text 680 324 filter resonance;
#X obj 689 274 hsl 256 25 60 1400 0 0 empty asd-c1x1-bpcf-slider empty
-2 -8 0 10 -262144 -1 -1 8150 1;
#X text 685 223 filter frequency;
#N canvas 639 410 1367 526 controls 0;
#X obj 30 53 inlet;
#X obj 160 52 inlet;
#X obj 435 46 inlet;
#X obj 292 53 inlet;
#X text 855 145 initialization;
#X obj 673 146 loadbang;
#X msg 673 211 \; asd-c1x1-evprls 250 \; asd-c1x1-oscfreq 70 \; asd-c1x1-bpcf
900 \; asd-c1x1-bpq 20;
#X obj 30 171 s asd-c1x1-evprls;
#X obj 98 261 s asd-c1x1-oscfreq;
#X obj 200 341 s asd-c1x1-bpcf;
#X obj 345 420 s asd-c1x1-bpq;
#X connect 0 0 7 0;
#X connect 1 0 8 0;
#X connect 2 0 10 0;
#X connect 3 0 9 0;
#X connect 5 0 6 0;
#X restore 414 454 pd controls;
#N canvas 0 22 1087 793 randomize 0;
#X obj 36 26 inlet;
#X obj 302 130 asd_randrange 40 200;
#X obj 178 270 asd_randrange 5 60;
#X obj 123 403 asd_randrange 60 1400;
#X obj 83 199 bng 15 250 50 0 empty empty empty 17 7 0 10 -262144 -1
-1;
#X obj 304 69 loadbang;
#X obj 36 89 t b b;
#X obj 34 682 outlet;
#X obj 83 545 asd_randrange 50 1500;
#X obj 302 191 s asd-c1x1-oscfreq-slider;
#X obj 178 331 s asd-c1x1-bpq-slider;
#X obj 123 462 s asd-c1x1-bpcf-slider;
#X obj 83 607 s asd-c1x1-evprls-slider;
#X connect 0 0 6 0;
#X connect 1 0 9 0;
#X connect 2 0 10 0;
#X connect 3 0 11 0;
#X connect 4 0 3 0;
#X connect 4 0 2 0;
#X connect 4 0 1 0;
#X connect 4 0 8 0;
#X connect 5 0 4 0;
#X connect 6 0 4 0;
#X connect 6 0 7 0;
#X connect 8 0 12 0;
#X restore 94 157 pd randomize;
#X obj 129 223 bng 30 250 50 0 empty empty empty 17 7 0 10 -262144
-1 -1;
#X text 167 218 Just Play;
#X text 132 85 Randomize and Play;
#N canvas 1 448 1093 656 adsr-envelope 0;
#X obj 162 16 inlet;
#X obj 206 511 outlet~;
#X obj 206 449 line~;
#X msg 206 296 0;
#X msg 297 296 1 10;
#X msg 420 298 0.7 40;
#X obj 162 86 t b b;
#X obj 299 181 pipe 10;
#X obj 473 180 pipe 40;
#X msg 580 299 0.7 100;
#X floatatom 859 118 5 0 0 0 - - -, f 5;
#X obj 650 181 pipe 100;
#X msg 765 359 0 \$1;
#X msg 765 297 836.658;
#X msg 859 178 set \$1;
#X obj 617 47 r asd-c1x1-evprls;
#X connect 0 0 6 0;
#X connect 2 0 1 0;
#X connect 3 0 2 0;
#X connect 4 0 2 0;
#X connect 5 0 2 0;
#X connect 6 0 4 0;
#X connect 6 0 7 0;
#X connect 6 1 3 0;
#X connect 7 0 5 0;
#X connect 7 0 8 0;
#X connect 8 0 9 0;
#X connect 8 0 11 0;
#X connect 9 0 2 0;
#X connect 10 0 14 0;
#X connect 11 0 13 0;
#X connect 12 0 2 0;
#X connect 13 0 12 0;
#X connect 14 0 13 0;
#X connect 15 0 10 0;
#X restore 94 276 pd adsr-envelope;
#N canvas 21 583 613 466 sound-source 0;
#X obj 29 360 outlet~;
#X obj 29 55 noise~;
#X floatatom 246 113 5 0 100000 0 - asd-c1x1-bpq -, f 5;
#X obj 29 173 bp~ 100 10;
#X floatatom 89 112 5 0 0 0 - asd-c1x1-bpcf -, f 5;
#X obj 378 117 osc~;
#X floatatom 378 62 5 0 0 0 - asd-c1x1-oscfreq -, f 5;
#X obj 378 174 *~ 0.2;
#X connect 1 0 3 0;
#X connect 2 0 3 2;
#X connect 3 0 0 0;
#X connect 4 0 3 1;
#X connect 5 0 7 0;
#X connect 6 0 5 0;
#X connect 7 0 0 0;
#X restore 31 25 pd sound-source;
#X text 686 43 envelope release time;
#X connect 0 0 1 0;
#X connect 0 0 1 1;
#X connect 2 0 0 1;
#X connect 3 0 0 0;
#X connect 4 0 14 0;
#X connect 6 0 13 0;
#X connect 7 0 13 1;
#X connect 9 0 13 3;
#X connect 11 0 13 2;
#X connect 14 0 18 0;
#X connect 15 0 18 0;
#X connect 18 0 3 1;
#X connect 19 0 3 0;
